Coordinates
version=1
nRows=8
nColumns=36
inDegrees=yes

Units are S.I. units (second, meters, Newtons, ...)
If the header above contains a line with 'inDegrees', this indicates whether rotational values are in degrees (yes) or radians (no).

endheader
time	pelvis_tilt	pelvis_list	pelvis_rotation	pelvis_tx	pelvis_ty	pelvis_tz	hip_flexion_r	hip_adduction_r	hip_rotation_r	knee_angle_r	knee_angle_r_beta	ankle_angle_r	subtalar_angle_r	mtp_angle_r	hip_flexion_l	hip_adduction_l	hip_rotation_l	knee_angle_l	knee_angle_l_beta	ankle_angle_l	subtalar_angle_l	mtp_angle_l	lumbar_extension	lumbar_bending	lumbar_rotation	arm_flex_r	arm_add_r	arm_rot_r	elbow_flex_r	pro_sup_r	arm_flex_l	arm_add_l	arm_rot_l	elbow_flex_l	pro_sup_l
      0.00000000	      2.08953394	      0.31330450	     -2.06743752	     -0.94865568	      1.29718824	     -0.08912310	     -3.90182502	     -3.54238093	      2.34396863	      4.08597892	      0.07131379	      7.94828822	     -3.05325162	     -6.20601941	     -4.31850253	     -0.51708819	      2.21026238	      4.95823283	      0.08653749	      8.61664668	     -2.04885012	     -6.20601941	    -11.48969668	     -0.05351260	     -2.29769993	     21.61007448	     -3.22137902	     31.65899751	    119.74183901	    103.67497680	     21.31200347	     -6.14668494	     33.67710422	    114.06147537	    101.48328997
      0.00416670	      0.87142528	     -0.23985720	     -1.04367558	     -0.94859799	      1.29117441	     -0.08977775	     -3.61893558	     -2.61994416	      2.77918266	      2.77153513	      0.04837241	      9.81917539	     -0.12458267	     -6.40474418	     -3.80647806	     -0.99840690	      3.61596555	      3.22932753	      0.05636240	      7.55446740	     -1.45880782	     -6.40474418	    -10.01821421	      0.71297125	     -2.58878314	     21.28190089	     -3.45415198	     31.62604975	    120.98460846	    101.88069353	     21.42069828	     -6.31961317	     33.29062541	    115.06882869	     98.69215487
      0.00833330	      0.20089441	     -0.07035145	     -1.06584559	     -0.94237803	      1.29039160	     -0.09407160	     -3.55667863	     -2.94011882	      2.47075742	      1.87956154	      0.03280454	     10.29800034	      0.10689725	     -6.42447903	     -3.38826910	     -0.66059009	      3.66276045	      2.98265739	      0.05205719	      7.28896191	     -1.00557732	     -6.42447903	     -9.32935997	      0.65863646	     -2.47769716	     20.03414493	     -3.87086975	     32.25089590	    122.48879150	    102.21435302	     20.85620053	     -6.05388119	     32.78765186	    116.30271022	     98.28605512
      0.01250000	      0.28564065	     -0.11416529	     -1.01609624	     -0.94936377	      1.29123829	     -0.08893213	     -3.78579512	     -2.84643340	      2.09201683	      1.23170384	      0.02149729	     10.99271573	      0.80115666	     -6.62955629	     -3.91406031	     -0.66011539	      3.80649215	      1.92997410	      0.03368440	      7.16984978	     -0.76124386	     -6.62955629	    -10.03745272	      0.53826501	     -2.36759647	     20.05478527	     -3.79049639	     33.13466005	    122.96905944	    104.92199826	     21.33944799	     -5.97577147	     32.77048058	    116.91260895	     92.63374923
      0.01666670	      0.21658352	     -0.20985314	     -1.06136408	     -0.94954980	      1.29136905	     -0.08895380	     -3.71775221	     -2.63044634	      1.83785498	      0.91881530	      0.01603635	     11.17383958	      0.79546711	     -6.90631932	     -4.05172255	     -0.80028231	      4.01712432	      1.30098107	      0.02270640	      7.03123858	     -0.57422342	     -6.90631932	    -10.29613302	      0.53944296	     -2.06344998	     20.04127009	     -3.75061801	     33.32189418	    123.07619703	    104.95380538	     21.66334415	     -5.89527462	     33.15225742	    117.32602725	     90.35434105
      0.02083330	      0.22658213	     -0.18094051	     -1.01767537	     -0.95018644	      1.29472617	     -0.08839692	     -3.78756646	     -2.61142816	      1.82299146	      0.78073018	      0.01362631	     11.26509457	      0.78216139	     -7.19965828	     -4.09464989	     -0.82418283	      4.36188732	      1.00411906	      0.01752518	      6.83808413	     -0.61025613	     -7.19965828	    -10.55335812	      0.37195564	     -2.04068336	     20.04511244	     -3.51013489	     33.17008357	    122.82519475	    105.46068517	     21.87238882	     -6.01339809	     33.36332548	    117.62541634	     88.80396830
      0.02500000	      0.37592002	     -0.10099818	     -0.96816707	     -0.95026977	      1.29430156	     -0.08847170	     -4.00169372	     -2.68791768	      1.72337554	      0.69590214	      0.01214578	     11.47176368	      0.91129364	     -7.32743941	     -4.25210278	     -0.80579623	      4.54478721	      0.85929977	      0.01499761	      6.92153783	     -0.44683823	     -7.32743941	    -10.77476340	      0.19615733	     -2.14396925	     20.19881686	     -3.21315303	     32.93091348	    122.47037556	    105.78988068	     22.05440674	     -6.21863016	     33.46067302	    118.00869524	     87.62356035
      0.02916670	      0.52874399	     -0.01420260	     -0.88780008	     -0.95082042	      1.29411252	     -0.08821876	     -4.19748298	     -2.76412172	      1.88580794	      0.69660801	      0.01215810	     11.37388548	      0.53774834	     -7.43753985	     -4.34277050	     -0.77409360	      5.01416907	      0.85291919	      0.01488625	      6.70851563	     -0.87342126	     -7.43753985	    -11.02984892	     -0.02741191	     -2.30685681	     20.49475371	     -2.90633011	     32.58245922	    122.61426289	    106.52175191	     22.29006294	     -6.43543058	     33.58917251	    118.34085165	     87.47818625
